# xmcd
#
# Track frame offsets:
#	150
#	24975
#	41775
#	59250
#	78450
#	106725
#	129825
#	152025
#	172650
#	191625
#	215175
#	238125
#
# Disc length: 3454 seconds
#
# Revision: 0
# Processed by: cddbd v1.4PL0 Copyright (c) Steve Scherf et al.
# Submitted via: EasyCDDAExtractor 4.6.0.1
#
DISCID=990d7c0c
DTITLE=Lucio Battisti - Si, viaggiare...1972,1977
DYEAR=1900
DGENRE=Country
TTITLE0=I giardini di Marzo
TTITLE1=Innocenti evasioni
TTITLE2=Comunque bella
TTITLE3=E penso a te
TTITLE4=La luce dell'est
TTITLE5=Il mio canto libero
TTITLE6=La collina dei ciliegi
TTITLE7=Io vorrei...non vorrei... ma se vuoi
TTITLE8=Il nostro caro angelo
TTITLE9=Due mondi
TTITLE10=Amarsi un po'
TTITLE11=Ancora tu
EXTD=
EXTT0=
EXTT1=
EXTT2=
EXTT3=
EXTT4=
EXTT5=
EXTT6=
EXTT7=
EXTT8=
EXTT9=
EXTT10=
EXTT11=
PLAYORDER=
